<?xml version="1.0" standalone="no"?>
<!DOCTYPE svg PUBLIC "-//W3C//DTD SVG 20010904//EN"
 "http://www.w3.org/TR/2001/REC-SVG-20010904/DTD/svg10.dtd">
<svg version="1.0" xmlns="http://www.w3.org/2000/svg"
 width="128.000000pt" height="128.000000pt" viewBox="0 0 128.000000 128.000000"
 preserveAspectRatio="xMidYMid meet">
<metadata>
Created by potrace 1.14, written by Peter Selinger 2001-2017
</metadata>
<g transform="translate(0.000000,128.000000) scale(0.100000,-0.100000)"
fill="#000000" stroke="none">
<path d="M867 1103 c-29 -27 -56 -54 -60 -60 -4 -7 -13 -13 -19 -13 -5 0 -8 6
-5 13 2 6 1 21 -3 32 -7 19 -16 20 -249 20 -133 0 -248 -3 -254 -7 -9 -5 -12
-93 -13 -325 l-2 -318 -35 -120 c-24 -79 -32 -122 -25 -126 6 -4 51 -10 100
-14 49 -3 99 -8 111 -10 12 -2 51 -6 87 -9 116 -11 174 -17 205 -21 17 -2 63
-7 103 -11 71 -6 72 -6 73 17 1 13 2 35 3 49 2 14 6 70 10 125 11 167 15 217
21 290 3 39 8 102 10 140 l5 70 70 70 c87 87 80 78 85 105 6 30 -9 56 -63 107
-60 58 -87 57 -155 -4z"/>
</g>
</svg>
